<svg width="312" height="302" xmlns="http://www.w3.org/2000/svg" xmlns:xlink="http://www.w3.org/1999/xlink" overflow="hidden"><defs><clipPath id="clip0"><rect x="1301" y="1021" width="312" height="302"/></clipPath></defs><g clip-path="url(#clip0)" transform="translate(-1301 -1021)"><path d="M1301 1043.83C1301 1031.22 1311.22 1021 1323.83 1021L1415.17 1021C1427.78 1021 1438 1031.22 1438 1043.83L1438 1135.17C1438 1147.78 1427.78 1158 1415.17 1158L1323.83 1158C1311.22 1158 1301 1147.78 1301 1135.17Z" fill-rule="evenodd"/><path d="M1476 1043.83C1476 1031.22 1486.22 1021 1498.83 1021L1590.17 1021C1602.78 1021 1613 1031.22 1613 1043.83L1613 1135.17C1613 1147.78 1602.78 1158 1590.17 1158L1498.83 1158C1486.22 1158 1476 1147.78 1476 1135.17Z" fill-rule="evenodd"/><path d="M1301 1208.83C1301 1196.22 1311.22 1186 1323.83 1186L1415.17 1186C1427.78 1186 1438 1196.22 1438 1208.83L1438 1300.17C1438 1312.78 1427.78 1323 1415.17 1323L1323.83 1323C1311.22 1323 1301 1312.78 1301 1300.17Z" fill-rule="evenodd"/><path d="M1476 1208.83C1476 1196.22 1486.22 1186 1498.83 1186L1590.17 1186C1602.78 1186 1613 1196.22 1613 1208.83L1613 1300.17C1613 1312.78 1602.78 1323 1590.17 1323L1498.83 1323C1486.22 1323 1476 1312.78 1476 1300.17Z" fill-rule="evenodd"/></g></svg>