<svg width="96" height="96" xmlns="http://www.w3.org/2000/svg" xmlns:xlink="http://www.w3.org/1999/xlink" overflow="hidden"><defs><clipPath id="clip0"><rect x="592" y="297" width="96" height="96"/></clipPath></defs><g clip-path="url(#clip0)" transform="translate(-592 -297)"><path d="M668 315C668 319.418 655.464 323 640 323 624.536 323 612 319.418 612 315 612 310.582 624.536 307 640 307 655.464 307 668 310.582 668 315Z"/><path d="M660 335C658.8 335 658 334.2 658 333 658 331.8 658.8 331 660 331 661.2 331 662 331.8 662 333 662 334.2 661.2 335 660 335ZM640 327C624.6 327 612 323.4 612 319L612 335C612 339.4 624.6 343 640 343 655.4 343 668 339.4 668 335L668 319C668 323.4 655.4 327 640 327Z"/><path d="M660 355C658.8 355 658 354.2 658 353 658 351.8 658.8 351 660 351 661.2 351 662 351.8 662 353 662 354.2 661.2 355 660 355ZM640 347C624.6 347 612 343.4 612 339L612 355C612 359.4 624.6 363 640 363 655.4 363 668 359.4 668 355L668 339C668 343.4 655.4 347 640 347Z"/><path d="M660 375C658.8 375 658 374.2 658 373 658 371.8 658.8 371 660 371 661.2 371 662 371.8 662 373 662 374.2 661.2 375 660 375ZM640 367C624.6 367 612 363.4 612 359L612 375C612 379.4 624.6 383 640 383 655.4 383 668 379.4 668 375L668 359C668 363.4 655.4 367 640 367Z"/></g></svg>